<svg width="97" height="44" viewBox="0 0 97 44" fill="none" xmlns="http://www.w3.org/2000/svg">
<path d="M35.15 26.0701C35.7 26.0701 36.34 26.1701 37.09 26.3501L37.19 26.3701L37.33 26.4001L37.3 26.5401L37.28 26.6401L37.24 26.8301L37.22 26.9301L37.19 27.0701L37.05 27.0401L36.95 27.0201C35.29 26.6301 34.37 26.7201 33.9 27.1001C33.43 27.4801 33.21 28.2901 33.21 29.6601C33.21 31.0301 33.42 31.8401 33.9 32.2201C34.34 32.5701 35.13 32.6801 36.58 32.3901V30.0101H34.91V29.3201H37.27V32.9601L37.16 32.9901L37.08 33.0101C35.37 33.4101 34.23 33.3801 33.47 32.7701C32.71 32.1601 32.52 31.0801 32.52 29.6801C32.52 28.2801 32.7 27.2001 33.47 26.5901C33.9 26.2501 34.46 26.1001 35.17 26.1001" fill="#122D51"/>
<path d="M40.27 26.7701V30.1501H41.48C42.03 30.1501 42.41 29.9401 42.69 29.6301C42.96 29.3201 43.12 28.8901 43.13 28.4501C43.14 28.0201 43.01 27.5901 42.74 27.2801C42.48 26.9801 42.08 26.7601 41.48 26.7601H40.27V26.7701ZM39.58 26.3301V26.0801H41.48C42.26 26.0801 42.87 26.3801 43.26 26.8401C43.65 27.3001 43.83 27.8901 43.81 28.4701C43.8 29.0501 43.59 29.6401 43.2 30.0901C42.94 30.3901 42.61 30.6101 42.18 30.7401L43.66 32.8701L43.77 33.0301L43.93 33.2601H43.09L43.05 33.2001L43.02 33.1601L41.42 30.8401H40.28V33.2601H39.59V26.3301H39.58Z" fill="#122D51"/>
<path d="M48.31 26.7798H48.2C47.6 26.7798 47.21 26.8998 46.95 27.1198C46.48 27.4998 46.26 28.2998 46.26 29.6798C46.26 31.0598 46.47 31.8598 46.95 32.2398C47.22 32.4498 47.61 32.5798 48.21 32.5798H48.31C48.91 32.5798 49.3 32.4598 49.56 32.2398C50.03 31.8598 50.25 31.0498 50.25 29.6798C50.25 28.3098 50.04 27.4998 49.56 27.1198C49.3 26.9098 48.91 26.7798 48.32 26.7798M48.29 26.0898C48.99 26.0898 49.56 26.2398 49.99 26.5798C50.75 27.1898 50.94 28.2698 50.94 29.6698C50.94 31.0698 50.76 32.1498 49.99 32.7598C49.57 33.0998 49 33.2498 48.31 33.2498H48.21C47.51 33.2498 46.95 33.0998 46.53 32.7598C45.77 32.1498 45.58 31.0698 45.58 29.6698C45.58 28.2698 45.76 27.1898 46.53 26.5798C46.96 26.2398 47.52 26.0898 48.23 26.0898H48.3H48.29Z" fill="#122D51"/>
<path d="M53.17 26.3101V26.0601H53.86V31.1501C53.86 31.7101 54.49 32.5501 55.48 32.5501C56.69 32.5501 57.3 31.7001 57.3 31.1501V26.0601H57.99V31.1501C57.99 32.1501 57.02 33.2401 55.48 33.2401C54.11 33.2401 53.17 32.1401 53.17 31.1501V26.3001V26.3101Z" fill="#122D51"/>
<path d="M60.94 26.7701V30.1501H62.37C62.92 30.1501 63.3 29.9401 63.58 29.6301C63.85 29.3201 64.01 28.8801 64.02 28.4501C64.03 28.0101 63.9 27.5901 63.63 27.2801C63.37 26.9801 62.97 26.7601 62.37 26.7601H60.94V26.7701ZM60.25 26.3301V26.0801H62.36C63.14 26.0801 63.75 26.3801 64.14 26.8401C64.53 27.3001 64.71 27.8901 64.69 28.4701C64.68 29.0501 64.47 29.6401 64.08 30.0901C63.68 30.5401 63.09 30.8401 62.36 30.8401H60.93V33.2601H60.24V26.3201L60.25 26.3301Z" fill="#122D51"/>
<path d="M35.15 26.0701C35.7 26.0701 36.34 26.1701 37.09 26.3501L37.19 26.3701L37.33 26.4001L37.3 26.5401L37.28 26.6401L37.24 26.8301L37.22 26.9301L37.19 27.0701L37.05 27.0401L36.95 27.0201C35.29 26.6301 34.37 26.7201 33.9 27.1001C33.43 27.4801 33.21 28.2901 33.21 29.6601C33.21 31.0301 33.42 31.8401 33.9 32.2201C34.34 32.5701 35.13 32.6801 36.58 32.3901V30.0101H34.91V29.3201H37.27V32.9601L37.16 32.9901L37.08 33.0101C35.37 33.4101 34.23 33.3801 33.47 32.7701C32.71 32.1601 32.52 31.0801 32.52 29.6801C32.52 28.2801 32.7 27.2001 33.47 26.5901C33.9 26.2501 34.46 26.1001 35.17 26.1001L35.15 26.0701Z" fill="#122D51"/>
<path d="M40.27 26.7701V30.1501H41.48C42.03 30.1501 42.41 29.9401 42.69 29.6301C42.96 29.3201 43.12 28.8901 43.13 28.4501C43.14 28.0201 43.01 27.5901 42.74 27.2801C42.48 26.9801 42.08 26.7601 41.48 26.7601H40.27V26.7701ZM39.58 26.3301V26.0801H41.48C42.26 26.0801 42.87 26.3801 43.26 26.8401C43.65 27.3001 43.83 27.8901 43.81 28.4701C43.8 29.0501 43.59 29.6401 43.2 30.0901C42.94 30.3901 42.61 30.6101 42.18 30.7401L43.66 32.8701L43.77 33.0301L43.93 33.2601H43.09L43.05 33.2001L43.02 33.1601L41.42 30.8401H40.28V33.2601H39.59V26.3301H39.58Z" fill="#122D51"/>
<path d="M48.31 26.7798H48.2C47.6 26.7798 47.21 26.8998 46.95 27.1198C46.48 27.4998 46.26 28.2998 46.26 29.6798C46.26 31.0598 46.47 31.8598 46.95 32.2398C47.22 32.4498 47.61 32.5798 48.21 32.5798H48.31C48.91 32.5798 49.3 32.4598 49.56 32.2398C50.03 31.8598 50.25 31.0498 50.25 29.6798C50.25 28.3098 50.04 27.4998 49.56 27.1198C49.3 26.9098 48.91 26.7798 48.32 26.7798H48.31ZM48.28 26.0898C48.98 26.0898 49.55 26.2398 49.98 26.5798C50.74 27.1898 50.93 28.2698 50.93 29.6698C50.93 31.0698 50.75 32.1498 49.98 32.7598C49.56 33.0998 48.99 33.2498 48.3 33.2498H48.2C47.5 33.2498 46.94 33.0998 46.52 32.7598C45.76 32.1498 45.57 31.0698 45.57 29.6698C45.57 28.2698 45.75 27.1898 46.52 26.5798C46.95 26.2398 47.51 26.0898 48.22 26.0898H48.29H48.28Z" fill="#122D51"/>
<path d="M53.17 26.3101V26.0601H53.86V31.1501C53.86 31.7101 54.49 32.5501 55.48 32.5501C56.69 32.5501 57.3 31.7001 57.3 31.1501V26.0601H57.99V31.1501C57.99 32.1501 57.02 33.2401 55.48 33.2401C54.11 33.2401 53.17 32.1401 53.17 31.1501V26.3001V26.3101Z" fill="#122D51"/>
<path d="M60.94 26.7701V30.1501H62.37C62.92 30.1501 63.3 29.9401 63.58 29.6301C63.85 29.3201 64.01 28.8801 64.02 28.4501C64.03 28.0101 63.9 27.5901 63.63 27.2801C63.37 26.9801 62.97 26.7601 62.37 26.7601H60.94V26.7701ZM60.25 26.3301V26.0801H62.36C63.14 26.0801 63.75 26.3801 64.14 26.8401C64.53 27.3001 64.71 27.8901 64.69 28.4701C64.68 29.0501 64.47 29.6401 64.08 30.0901C63.68 30.5401 63.09 30.8401 62.36 30.8401H60.93V33.2601H60.24V26.3201L60.25 26.3301Z" fill="#122D51"/>
<path d="M7.09 39.5701H8L8.75 41.6901L9.56 39.5701H10.12L10.91 41.6601L11.66 39.5701H12.57L11.22 43.2901H10.63L9.83 41.1701L9.01 43.2901H8.43L7.09 39.5701Z" fill="#122D51"/>
<path d="M18.29 40.97C18.23 40.77 18.11 40.6 17.93 40.47C17.75 40.34 17.54 40.28 17.3 40.28C17.04 40.28 16.81 40.35 16.61 40.49C16.49 40.58 16.37 40.74 16.27 40.96H18.29V40.97ZM19.22 41.7H16.23C16.27 41.97 16.39 42.18 16.58 42.33C16.77 42.49 17.01 42.56 17.3 42.56C17.65 42.56 17.95 42.44 18.2 42.19L18.98 42.56C18.79 42.84 18.55 43.04 18.28 43.18C18.01 43.31 17.68 43.38 17.31 43.38C16.73 43.38 16.25 43.2 15.89 42.83C15.52 42.46 15.34 42 15.34 41.45C15.34 40.9 15.52 40.41 15.89 40.04C16.26 39.67 16.71 39.48 17.26 39.48C17.84 39.48 18.32 39.67 18.69 40.04C19.06 40.41 19.24 40.9 19.24 41.52V41.7H19.22Z" fill="#122D51"/>
<path d="M27.14 40.3399C26.85 40.3399 26.6 40.4399 26.41 40.6399C26.22 40.8399 26.12 41.0999 26.12 41.4299C26.12 41.7599 26.22 42.0299 26.41 42.2299C26.6 42.4299 26.85 42.5399 27.14 42.5399C27.43 42.5399 27.66 42.4399 27.86 42.2299C28.05 42.0199 28.15 41.7599 28.15 41.4399C28.15 41.1199 28.05 40.8599 27.86 40.6599C27.67 40.4599 27.43 40.3499 27.14 40.3499M26.16 38.1499V39.9999C26.33 39.8299 26.51 39.7099 26.71 39.6199C26.91 39.5399 27.12 39.4999 27.34 39.4999C27.82 39.4999 28.24 39.6799 28.58 40.0499C28.92 40.4199 29.09 40.8899 29.09 41.4599C29.09 42.0299 28.91 42.4699 28.56 42.8499C28.21 43.2199 27.79 43.4099 27.31 43.4099C27.1 43.4099 26.9 43.3699 26.71 43.2999C26.53 43.2199 26.34 43.0999 26.16 42.9299V43.3299H25.23V38.1799H26.16V38.1499Z" fill="#122D51"/>
<path d="M32.25 39.57H33.2V41.3601C33.2 41.7101 33.22 41.9501 33.27 42.0801C33.32 42.2201 33.39 42.3201 33.5 42.4001C33.61 42.4701 33.74 42.51 33.89 42.51C34.04 42.51 34.18 42.4701 34.29 42.4001C34.4 42.3301 34.48 42.22 34.53 42.07C34.57 41.96 34.59 41.7301 34.59 41.3801V39.5601H35.52V41.1301C35.52 41.7801 35.47 42.22 35.37 42.46C35.25 42.75 35.06 42.9701 34.82 43.1301C34.58 43.2901 34.27 43.3601 33.89 43.3601C33.48 43.3601 33.15 43.27 32.9 43.09C32.65 42.91 32.47 42.6501 32.37 42.3301C32.3 42.1001 32.26 41.7 32.26 41.1V39.55L32.25 39.57Z" fill="#122D51"/>
<path d="M38.76 39.57H39.69V43.29H38.76V39.57ZM39.23 38.04C39.39 38.04 39.53 38.1 39.65 38.22C39.77 38.34 39.83 38.48 39.83 38.65C39.83 38.82 39.77 38.96 39.66 39.07C39.54 39.19 39.41 39.25 39.24 39.25C39.07 39.25 38.93 39.19 38.82 39.07C38.7 38.95 38.64 38.81 38.64 38.64C38.64 38.47 38.7 38.34 38.81 38.22C38.93 38.1 39.07 38.05 39.23 38.05V38.04Z" fill="#122D51"/>
<path d="M43.77 38.1399H42.84V43.2899H43.77V38.1399Z" fill="#122D51"/>
<path d="M48.78 40.3399C48.49 40.3399 48.25 40.4399 48.06 40.6499C47.87 40.8499 47.77 41.1099 47.77 41.4299C47.77 41.7499 47.87 42.0099 48.06 42.2199C48.25 42.4299 48.49 42.5299 48.78 42.5299C49.07 42.5299 49.32 42.4299 49.51 42.2199C49.7 42.0199 49.8 41.7499 49.8 41.4199C49.8 41.0899 49.7 40.8399 49.51 40.6299C49.32 40.4299 49.07 40.3299 48.78 40.3299M49.76 38.1299H50.69V43.2799H49.76V42.8799C49.58 43.0499 49.39 43.1799 49.21 43.2499C49.03 43.3299 48.83 43.3599 48.61 43.3599C48.13 43.3599 47.71 43.1699 47.36 42.7999C47.01 42.4299 46.83 41.9699 46.83 41.4099C46.83 40.8499 47 40.3699 47.34 39.9999C47.68 39.6299 48.09 39.4499 48.58 39.4499C48.8 39.4499 49.01 39.4899 49.21 39.5699C49.41 39.6499 49.59 39.7799 49.75 39.9499V38.0999L49.76 38.1299Z" fill="#122D51"/>
<path d="M56.49 39.5701H57.44L58.38 41.7701L59.32 39.5701H60.27L58.67 43.2901H58.07L56.49 39.5701Z" fill="#122D51"/>
<path d="M64.97 40.34C64.68 40.34 64.44 40.44 64.25 40.65C64.06 40.85 63.96 41.11 63.96 41.43C63.96 41.75 64.06 42.01 64.25 42.22C64.44 42.43 64.68 42.53 64.97 42.53C65.26 42.53 65.51 42.43 65.7 42.22C65.89 42.02 65.99 41.75 65.99 41.42C65.99 41.09 65.89 40.84 65.7 40.63C65.51 40.43 65.26 40.33 64.97 40.33M65.95 39.57H66.88V43.29H65.95V42.89C65.77 43.06 65.58 43.19 65.4 43.26C65.22 43.34 65.02 43.37 64.8 43.37C64.32 43.37 63.9 43.18 63.55 42.81C63.2 42.44 63.02 41.98 63.02 41.42C63.02 40.86 63.19 40.38 63.53 40.01C63.87 39.64 64.28 39.46 64.77 39.46C64.99 39.46 65.2 39.5 65.4 39.58C65.6 39.66 65.78 39.79 65.94 39.95V39.54L65.95 39.57Z" fill="#122D51"/>
<path d="M71.06 38.1399H70.13V43.2899H71.06V38.1399Z" fill="#122D51"/>
<path d="M74.3 39.57H75.25V41.3601C75.25 41.7101 75.27 41.9501 75.32 42.0801C75.37 42.2201 75.44 42.3201 75.55 42.4001C75.66 42.4701 75.79 42.51 75.94 42.51C76.09 42.51 76.23 42.4701 76.34 42.4001C76.45 42.3301 76.53 42.22 76.58 42.07C76.62 41.96 76.64 41.7301 76.64 41.3801V39.5601H77.57V41.1301C77.57 41.7801 77.52 42.22 77.42 42.46C77.3 42.75 77.11 42.9701 76.87 43.1301C76.63 43.2901 76.32 43.3601 75.94 43.3601C75.53 43.3601 75.2 43.27 74.95 43.09C74.7 42.91 74.52 42.6501 74.42 42.3301C74.35 42.1001 74.31 41.7 74.31 41.1V39.55L74.3 39.57Z" fill="#122D51"/>
<path d="M83.7 40.97C83.64 40.77 83.52 40.6 83.34 40.47C83.16 40.34 82.95 40.28 82.71 40.28C82.45 40.28 82.22 40.35 82.02 40.49C81.9 40.58 81.78 40.74 81.68 40.96H83.7V40.97ZM84.63 41.7H81.64C81.68 41.97 81.8 42.18 81.99 42.33C82.18 42.49 82.42 42.56 82.71 42.56C83.06 42.56 83.36 42.44 83.61 42.19L84.39 42.56C84.2 42.84 83.96 43.04 83.69 43.18C83.42 43.31 83.09 43.38 82.72 43.38C82.14 43.38 81.66 43.2 81.3 42.83C80.93 42.46 80.75 42 80.75 41.45C80.75 40.9 80.93 40.41 81.3 40.04C81.67 39.67 82.12 39.48 82.67 39.48C83.25 39.48 83.73 39.67 84.1 40.04C84.47 40.41 84.65 40.9 84.65 41.52V41.7H84.63Z" fill="#122D51"/>
<path d="M90.06 40.1L89.48 40.68C89.25 40.45 89.03 40.33 88.84 40.33C88.74 40.33 88.65 40.35 88.59 40.4C88.53 40.44 88.5 40.5 88.5 40.56C88.5 40.61 88.52 40.66 88.56 40.7C88.6 40.74 88.69 40.8 88.84 40.87L89.18 41.04C89.54 41.22 89.79 41.4 89.92 41.58C90.05 41.76 90.12 41.98 90.12 42.23C90.12 42.56 90 42.83 89.76 43.05C89.52 43.27 89.19 43.38 88.78 43.38C88.24 43.38 87.8 43.17 87.48 42.74L88.06 42.11C88.17 42.24 88.3 42.34 88.45 42.42C88.6 42.5 88.73 42.54 88.84 42.54C88.96 42.54 89.06 42.51 89.14 42.45C89.22 42.39 89.25 42.32 89.25 42.25C89.25 42.11 89.11 41.97 88.84 41.83L88.53 41.67C87.93 41.37 87.63 40.99 87.63 40.54C87.63 40.25 87.74 40 87.97 39.79C88.2 39.58 88.49 39.48 88.84 39.48C89.08 39.48 89.31 39.53 89.52 39.64C89.73 39.75 89.91 39.9 90.06 40.1Z" fill="#122D51"/>
<path d="M96.52 29.5801H69.3V29.8701H96.52V29.5801Z" fill="#122D51"/>
<path d="M27.93 29.5801H0.709991V29.8701H27.93V29.5801Z" fill="#122D51"/>
<path d="M4.02999 20.9899V7.1299L9.16999 15.8299H11.22L16.33 7.1299V20.9899H19.65V1.3999H16.25L10.2 11.6299L4.11999 1.3999H0.709991V20.9899H4.02999Z" fill="#122D51"/>
<path d="M30.67 5.2199L33.78 14.5599H27.55L30.66 5.2199H30.67ZM39.51 20.9899L32.58 1.3999H28.79L21.8 20.9899H25.41L26.64 17.2599H34.69L35.92 20.9899H39.5H39.51Z" fill="#122D51"/>
<path d="M39.62 11.21C39.62 14.26 40.53 16.73 42.35 18.61C44.17 20.46 46.58 21.4 49.58 21.4C51.02 21.4 52.49 21.11 53.93 20.52C55.4 19.93 56.6 19.17 57.51 18.2V10.12H49.64L49.43 12.88H54.42V16.67C52.98 17.7 51.45 18.2 49.84 18.2C47.78 18.2 46.14 17.55 44.88 16.29C43.62 15 43 13.29 43 11.18C43 9.06996 43.62 7.38996 44.88 6.09996C46.14 4.80996 47.79 4.15996 49.87 4.15996C51.95 4.15996 53.92 4.88996 55.95 6.38996L57.3 3.56996C54.86 1.83996 52.37 0.959961 49.75 0.959961C46.72 0.959961 44.26 1.89996 42.41 3.77996C40.56 5.65996 39.62 8.12996 39.62 11.21Z" fill="#122D51"/>
<path d="M73.34 15.2399L64.83 1.3999H61.51V20.9899H64.83V7.1899L73.34 20.9899H76.66V1.3999H73.34V15.2399Z" fill="#122D51"/>
<path d="M87.68 5.2199L90.79 14.5599H84.56L87.67 5.2199H87.68ZM96.52 20.9899L89.59 1.3999H85.8L78.81 20.9899H82.42L83.65 17.2599H91.7L92.93 20.9899H96.51H96.52Z" fill="#122D51"/>
</svg>
