<svg width="205" height="66" viewBox="0 0 205 66" fill="none" xmlns="http://www.w3.org/2000/svg">
<g clip-path="url(#clip0_28_94)">
<path d="M0 54.7865L28.3684 65.998V56.0376L15.3631 49.4155L1.20679 52.7863L0 54.7865Z" fill="#DEDEDE"/>
<path d="M56.6671 54.7926L28.3744 66.0001V56.0377L41.3758 49.4136L55.5341 52.7864L56.6671 54.7926Z" fill="#DEDEDE"/>
<path d="M56.6731 23.7533L51.9457 25.9316L36.433 19.8076L41.7289 17.4673L56.2642 23.3484L56.6731 23.7533Z" fill="#DEDEDE"/>
<path d="M0.0140305 38.1332L6.72216 40.9654L20.9862 36.0945L14.1264 33.4121L0.682251 37.4266L0.0140305 38.1332Z" fill="#DEDEDE"/>
<path d="M56.6691 27.707L28.3405 16.5359V28.9804L44.0427 34.0234V38.542L28.3405 33.4282V45.6317L56.6691 54.7905V27.707ZM56.6691 11.8695L28.3405 0V11.9707L56.6691 23.7512V11.8715V11.8695Z" fill="white"/>
<path d="M43.5021 50.5328L49.7056 52.5371L40.6996 37.4507L34.4921 35.4302L43.5021 50.5308V50.5328ZM28.3405 45.6296L37.3026 48.5286L28.3405 33.4969V45.6296ZM43.5759 33.8734L44.0447 34.0232V34.6549L55.935 54.5514L56.6691 54.7883V47.405L41.2641 21.6294L34.7155 19.0461L43.5739 33.8714L43.5759 33.8734ZM28.3405 25.1236L31.1869 29.8933L37.3705 31.8813L28.3385 16.7504V25.1236H28.3405ZM28.3405 8.37917L31.1969 13.159L37.8572 15.9264L28.3405 0.00390625V8.37715V8.37917Z" fill="#F0F0F0"/>
<path d="M0.0101166 38.1189L28.3506 28.9764V16.5299L12.6505 22.7349V18.4916L28.3506 11.9687V0L0.0101166 11.7764V38.1189ZM28.3506 45.6317V33.4342L0.0101166 43.091V54.7783L28.3506 45.6297V45.6317Z" fill="white"/>
<path d="M3.24151 41.9895L0.0101166 47.3969V54.7782L0.748151 54.5393L9.52876 39.8456L3.24351 41.9875L3.24151 41.9895ZM15.826 37.7017L6.97158 52.533L13.1731 50.5308L22.1053 35.5618L15.828 37.7017H15.826ZM19.3666 48.5327L28.3347 45.6377V33.4908L19.3666 48.5327ZM15.3931 21.6516L6.87583 35.904L13.0773 33.9018L21.9437 19.0623L15.3912 21.6537L15.3931 21.6516ZM19.2888 31.8996L25.4783 29.9014L28.3347 25.1176V16.7443L19.2888 31.8996ZM28.3327 0.00390625L18.816 15.9305L25.4723 13.163L28.3367 8.36905V0.00390625H28.3327Z" fill="#D5D5D5"/>
<path d="M192.677 48.9722C192.729 50.031 192.962 50.9319 193.381 51.6769C193.8 52.4219 194.312 53.0333 194.917 53.5091C195.523 53.9869 196.178 54.331 196.876 54.5517C197.576 54.7683 198.234 54.8756 198.848 54.8756C199.582 54.8756 200.318 54.7481 201.051 54.497C201.785 54.248 202.447 53.8694 203.035 53.3674C203.624 52.8653 204.098 52.2256 204.457 51.4542C204.817 50.6849 204.996 49.778 204.996 48.7394C204.996 47.7009 204.812 46.8283 204.443 46.1258C204.076 45.4233 203.628 44.8463 203.099 44.3969C202.57 43.9454 202.024 43.6053 201.459 43.3664C200.897 43.1336 200.418 42.9474 200.027 42.8077C199.549 42.6538 199.112 42.502 198.721 42.3542C198.326 42.2084 197.993 42.0364 197.721 41.8461C197.448 41.6558 197.239 41.427 197.093 41.1557C196.947 40.8885 196.874 40.5463 196.874 40.1313C196.874 39.5584 197.063 39.0907 197.438 38.7284C197.811 38.364 198.274 38.1797 198.82 38.1797C199.058 38.1797 199.297 38.2121 199.537 38.2729C199.776 38.3336 199.993 38.447 200.189 38.6109C200.384 38.7749 200.552 38.9956 200.689 39.273C200.827 39.5503 200.911 39.9046 200.945 40.3398H204.531C204.481 39.3519 204.264 38.5097 203.879 37.8174C203.496 37.125 203.029 36.5561 202.485 36.1148C201.938 35.6714 201.344 35.3515 200.703 35.1511C200.063 34.9527 199.471 34.8535 198.924 34.8535C198.12 34.8535 197.382 34.9932 196.706 35.2807C196.032 35.5682 195.447 35.9569 194.953 36.4508C194.458 36.9468 194.069 37.5279 193.788 38.1939C193.505 38.862 193.365 39.5766 193.365 40.3398C193.365 41.3642 193.533 42.1983 193.866 42.8462C194.197 43.496 194.598 44.0224 195.068 44.4192C195.537 44.82 196.032 45.1257 196.555 45.3423C197.075 45.559 197.516 45.7371 197.873 45.8748C198.455 46.0995 198.97 46.304 199.423 46.4841C199.876 46.6663 200.255 46.8708 200.564 47.0976C200.871 47.3223 201.1 47.5936 201.254 47.9154C201.41 48.2373 201.485 48.6402 201.485 49.1241C201.485 49.4885 201.412 49.8164 201.268 50.112C201.122 50.4056 200.929 50.6606 200.691 50.8793C200.452 51.0959 200.173 51.2619 199.86 51.3733C199.543 51.4846 199.213 51.5433 198.872 51.5433C198.599 51.5433 198.326 51.4988 198.053 51.4137C197.779 51.3267 197.524 51.185 197.285 50.9846C197.043 50.7841 196.844 50.5189 196.682 50.191C196.521 49.863 196.413 49.454 196.361 48.9682H192.673L192.677 48.9722ZM180.611 54.4849H190.806V51.1587H184.12V46.6076H190.523V43.2814H184.12V38.5745H190.806V35.2463H180.611V54.4869V54.4849ZM174.513 49.1281C174.31 49.3548 174.06 49.6059 173.771 49.8812C173.48 50.1586 173.143 50.4238 172.76 50.6748C172.375 50.9258 171.936 51.1344 171.441 51.2983C170.945 51.4623 170.382 51.5453 169.75 51.5453C168.912 51.5453 168.114 51.3631 167.354 50.9987C166.592 50.6363 165.924 50.1505 165.344 49.5431C164.761 48.9358 164.302 48.2252 163.961 47.4114C163.62 46.5955 163.451 45.7391 163.451 44.8362C163.451 43.8847 163.628 43 163.987 42.1841C164.346 41.3703 164.809 40.6638 165.382 40.0665C165.954 39.4673 166.612 39.0037 167.354 38.6757C168.096 38.3457 168.852 38.1797 169.62 38.1797C170.677 38.1797 171.619 38.4065 172.437 38.8559C173.257 39.3074 174.007 39.9309 174.691 40.7285H178.688C178.227 39.6718 177.651 38.7709 176.961 38.0259C176.269 37.2809 175.521 36.6735 174.719 36.2059C173.915 35.7382 173.083 35.3961 172.221 35.1774C171.36 34.9608 170.534 34.8535 169.75 34.8535C168.384 34.8535 167.105 35.1207 165.906 35.6593C164.711 36.1957 163.67 36.9205 162.78 37.8275C161.893 38.7385 161.195 39.7953 160.694 40.9998C160.189 42.2064 159.938 43.4677 159.938 44.7836C159.938 46.0995 160.193 47.4215 160.706 48.6443C161.217 49.867 161.923 50.942 162.82 51.8692C163.718 52.7985 164.767 53.5293 165.972 54.0678C167.175 54.6043 168.459 54.8736 169.828 54.8736C170.733 54.8736 171.629 54.74 172.517 54.4687C173.404 54.2014 174.236 53.8188 175.014 53.3269C175.792 52.8309 176.488 52.2296 177.102 51.519C177.719 50.8104 178.213 50.0128 178.588 49.1281H174.515H174.513ZM140.288 54.4849H144.156L146.179 49.5209H152.969L154.993 54.4849H158.861L150.918 35.2442H148.179L140.288 54.4849ZM149.514 40.2629H149.564L151.716 46.1643H147.362L149.516 40.2629H149.514ZM130.171 54.4849H133.682V47.1522H134.939C135.449 47.1522 135.94 47.1441 136.409 47.1259C136.879 47.1077 137.344 47.053 137.803 46.9558C138.266 46.8587 138.719 46.7089 139.163 46.5024C139.606 46.2938 140.049 45.9983 140.494 45.6177C141.11 45.0447 141.561 44.3908 141.854 43.6539C142.143 42.917 142.289 42.0991 142.289 41.1982C142.289 39.362 141.691 37.8882 140.496 36.7788C140.051 36.3962 139.608 36.1026 139.165 35.8941C138.721 35.6856 138.268 35.5358 137.805 35.4406C137.346 35.3455 136.879 35.2888 136.411 35.2706C135.94 35.2523 135.451 35.2442 134.941 35.2442H130.173V54.4849H130.171ZM133.682 38.5725H134.939C135.296 38.5725 135.697 38.5907 136.141 38.6251C136.584 38.6595 137.003 38.7628 137.396 38.9369C137.789 39.111 138.118 39.3742 138.381 39.7285C138.647 40.0848 138.778 40.5747 138.778 41.1982C138.778 41.8218 138.641 42.3117 138.367 42.668C138.096 43.0223 137.757 43.2875 137.354 43.4596C136.953 43.6337 136.522 43.7369 136.062 43.7713C135.603 43.8058 135.182 43.822 134.807 43.822H133.682V38.5705V38.5725ZM115.313 48.9722C115.365 50.031 115.598 50.9319 116.017 51.6769C116.436 52.4219 116.949 53.0333 117.555 53.5091C118.159 53.9869 118.814 54.331 119.514 54.5517C120.212 54.7683 120.87 54.8756 121.486 54.8756C122.22 54.8756 122.957 54.7481 123.689 54.497C124.423 54.248 125.085 53.8694 125.673 53.3674C126.262 52.8653 126.736 52.2256 127.097 51.4542C127.455 50.6849 127.634 49.778 127.634 48.7394C127.634 47.7009 127.451 46.8283 127.084 46.1258C126.715 45.4233 126.268 44.8463 125.737 44.3969C125.209 43.9454 124.66 43.6053 124.097 43.3664C123.533 43.1336 123.056 42.9474 122.661 42.8077C122.185 42.6538 121.75 42.502 121.355 42.3542C120.962 42.2084 120.627 42.0364 120.355 41.8461C120.084 41.6558 119.873 41.427 119.727 41.1557C119.583 40.8885 119.51 40.5463 119.51 40.1313C119.51 39.5584 119.697 39.0907 120.072 38.7284C120.449 38.364 120.91 38.1797 121.455 38.1797C121.694 38.1797 121.933 38.2121 122.175 38.2729C122.412 38.3336 122.629 38.447 122.827 38.6109C123.022 38.7749 123.188 38.9956 123.328 39.273C123.463 39.5503 123.547 39.9046 123.583 40.3398H127.169C127.119 39.3519 126.9 38.5097 126.517 37.8174C126.134 37.125 125.665 36.5561 125.121 36.1148C124.574 35.6714 123.98 35.3515 123.341 35.1511C122.699 34.9527 122.105 34.8535 121.56 34.8535C120.756 34.8535 120.018 34.9932 119.344 35.2807C118.67 35.5682 118.083 35.9569 117.589 36.4508C117.094 36.9468 116.705 37.5279 116.422 38.1939C116.139 38.862 115.999 39.5766 115.999 40.3398C115.999 41.3642 116.167 42.1983 116.5 42.8462C116.831 43.496 117.234 44.0224 117.703 44.4192C118.173 44.82 118.668 45.1257 119.191 45.3423C119.711 45.559 120.152 45.7371 120.509 45.8748C121.089 46.0995 121.606 46.304 122.057 46.4841C122.51 46.6663 122.891 46.8708 123.198 47.0976C123.505 47.3223 123.736 47.5936 123.89 47.9154C124.044 48.2373 124.121 48.6402 124.121 49.1241C124.121 49.4885 124.048 49.8164 123.902 50.112C123.756 50.4056 123.565 50.6606 123.326 50.8793C123.086 51.0959 122.807 51.2619 122.492 51.3733C122.175 51.4846 121.845 51.5433 121.506 51.5433C121.233 51.5433 120.96 51.4988 120.687 51.4137C120.411 51.3267 120.158 51.185 119.919 50.9846C119.679 50.7841 119.478 50.5189 119.316 50.191C119.155 49.863 119.047 49.454 118.997 48.9682H115.307L115.313 48.9722ZM96.0721 54.4849H106.269V51.1587H99.5828V46.6076H105.988V43.2814H99.5828V38.5745H106.269V35.2463H96.0721V54.4869V54.4849ZM83.7789 54.4849H87.2895V46.6056H93.1559V43.2794H87.2895V38.5725H93.4371V35.2442H83.7809V54.4849H83.7789ZM76.8872 54.4849H80.3959V35.2442H76.8872V54.4849ZM65.6172 54.4849H74.9165V51.1587H69.1259V35.2442H65.6172V54.4849Z" fill="white"/>
<path d="M112.077 23.8485C112.123 24.7778 112.331 25.5714 112.7 26.2273C113.067 26.8832 113.52 27.4217 114.052 27.8408C114.587 28.2599 115.161 28.5656 115.778 28.7559C116.394 28.9482 116.972 29.0433 117.513 29.0433C118.159 29.0433 118.804 28.932 119.452 28.7093C120.098 28.4866 120.681 28.1566 121.199 27.7153C121.718 27.2719 122.135 26.7111 122.45 26.035C122.767 25.3547 122.925 24.5571 122.925 23.64C122.925 22.7229 122.763 21.9577 122.44 21.3422C122.117 20.7227 121.722 20.2166 121.257 19.8198C120.792 19.4251 120.312 19.1214 119.813 18.9169C119.318 18.7124 118.897 18.5485 118.552 18.425C118.129 18.2893 117.746 18.1557 117.403 18.0241C117.056 17.8966 116.763 17.7488 116.524 17.5787C116.282 17.4127 116.099 17.2103 115.971 16.9734C115.841 16.7365 115.78 16.4369 115.78 16.0685C115.78 15.5644 115.943 15.1514 116.276 14.8335C116.605 14.5116 117.01 14.3517 117.493 14.3517C117.701 14.3517 117.914 14.378 118.123 14.4307C118.335 14.4874 118.526 14.5866 118.7 14.7303C118.873 14.8761 119.019 15.0704 119.139 15.3154C119.258 15.5603 119.334 15.8721 119.364 16.2527H122.522C122.478 15.3842 122.284 14.6432 121.945 14.0339C121.608 13.4225 121.199 12.9224 120.716 12.5358C120.236 12.1471 119.713 11.8636 119.149 11.6895C118.586 11.5134 118.064 11.4263 117.583 11.4263C116.877 11.4263 116.226 11.5539 115.632 11.8029C115.04 12.056 114.525 12.4001 114.086 12.8334C113.651 13.2686 113.31 13.7808 113.061 14.3679C112.814 14.955 112.69 15.5846 112.69 16.2547C112.69 17.1536 112.835 17.8905 113.131 18.4634C113.422 19.0364 113.777 19.4979 114.188 19.8482C114.603 20.1984 115.04 20.4697 115.496 20.66C115.955 20.8523 116.342 21.0062 116.657 21.1297C117.168 21.326 117.623 21.5062 118.022 21.6661C118.421 21.8281 118.756 22.0083 119.025 22.2026C119.296 22.401 119.498 22.644 119.633 22.9233C119.769 23.2068 119.837 23.5611 119.837 23.9882C119.837 24.3081 119.773 24.5976 119.645 24.8567C119.518 25.1159 119.35 25.3406 119.139 25.5309C118.929 25.7232 118.686 25.8669 118.405 25.9661C118.127 26.0633 117.836 26.1119 117.537 26.1119C117.294 26.1119 117.054 26.0755 116.815 25.9985C116.574 25.9236 116.35 25.7961 116.139 25.622C115.929 25.4479 115.752 25.2151 115.61 24.9235C115.466 24.6361 115.373 24.2757 115.327 23.8485H112.079H112.077ZM95.2842 28.6992H98.6892L100.468 24.3283H106.443L108.222 28.6992H111.625L104.637 11.7665H102.226L95.2822 28.6992H95.2842ZM103.401 16.1818H103.446L105.339 21.3766H101.506L103.401 16.1818ZM90.4371 28.6992H93.5249V11.7665H90.4371V28.6992ZM77.1824 28.6992H80.2722V22.2229H80.3161L84.7343 28.6992H88.4764L83.9464 22.4537C84.3673 22.3464 84.8101 22.2087 85.2769 22.0407C85.7416 21.8726 86.2224 21.5447 86.719 21.0568C87.0182 20.7673 87.2716 20.4474 87.473 20.0952C87.6765 19.7449 87.84 19.3866 87.9677 19.0202C88.0974 18.6557 88.1871 18.2974 88.241 17.9452C88.2908 17.5949 88.3168 17.2832 88.3168 17.0058C88.3168 16.5199 88.2609 16.0685 88.1492 15.6555C88.0355 15.2425 87.8859 14.868 87.6984 14.5238C87.5109 14.1796 87.2995 13.8739 87.0661 13.6087C86.8327 13.3395 86.5954 13.1087 86.356 12.9103C85.8753 12.5155 85.3208 12.224 84.6904 12.0418C84.0581 11.8596 83.2602 11.7665 82.3008 11.7665H77.1824V28.6992ZM80.2722 14.6959H82.2549C82.8573 14.6959 83.35 14.7829 83.731 14.9591C84.114 15.1352 84.4172 15.3559 84.6446 15.6211C84.87 15.8883 85.0236 16.1697 85.1073 16.4673C85.1891 16.7649 85.231 17.0281 85.231 17.2548C85.231 17.4816 85.1971 17.7488 85.1293 18.0464C85.0614 18.344 84.9178 18.6254 84.7004 18.8926C84.483 19.1598 84.1778 19.3866 83.7868 19.5789C83.3959 19.7692 82.8852 19.8644 82.2529 19.8644H80.2702V14.6938L80.2722 14.6959ZM64.2888 23.8465C64.3347 24.7757 64.5421 25.5693 64.9091 26.2253C65.2761 26.8812 65.7269 27.4197 66.2615 27.8388C66.7961 28.2578 67.3706 28.5635 67.9869 28.7538C68.6033 28.9462 69.1797 29.0413 69.7223 29.0413C70.3686 29.0413 71.0149 28.93 71.6611 28.7073C72.3074 28.4846 72.8919 28.1546 73.4105 27.7133C73.9291 27.2699 74.346 26.7091 74.6592 26.0329C74.9743 25.3527 75.1359 24.5551 75.1359 23.638C75.1359 22.7209 74.9723 21.9556 74.6492 21.3402C74.326 20.7207 73.9331 20.2146 73.4643 19.8178C72.9996 19.423 72.5189 19.1194 72.0222 18.9149C71.5255 18.7104 71.1066 18.5464 70.7615 18.4229C70.3387 18.2873 69.9557 18.1537 69.6086 18.0221C69.2635 17.8945 68.9683 17.7468 68.7289 17.5767C68.4876 17.4107 68.3061 17.2082 68.1764 16.9714C68.0508 16.7345 67.9869 16.4349 67.9869 16.0664C67.9869 15.5623 68.1525 15.1494 68.4836 14.8315C68.8147 14.5096 69.2176 14.3497 69.7004 14.3497C69.9098 14.3497 70.1212 14.376 70.3307 14.4286C70.5421 14.4853 70.7316 14.5845 70.9071 14.7283C71.0787 14.874 71.2263 15.0684 71.348 15.3133C71.4677 15.5583 71.5435 15.8701 71.5734 16.2507H74.729C74.6851 15.3822 74.4916 14.6412 74.1545 14.0318C73.8154 13.4205 73.4065 12.9204 72.9258 12.5337C72.4431 12.145 71.9224 11.8616 71.356 11.6875C70.7954 11.5114 70.2708 11.4243 69.7921 11.4243C69.084 11.4243 68.4357 11.5519 67.8413 11.8009C67.2469 12.0539 66.7323 12.3981 66.2954 12.8313C65.8606 13.2666 65.5195 13.7788 65.2702 14.3659C65.0208 14.953 64.8991 15.5826 64.8991 16.2527C64.8991 17.1516 65.0448 17.8885 65.338 18.4614C65.6312 19.0343 65.9843 19.4959 66.3972 19.8461C66.8101 20.1964 67.2469 20.4677 67.7057 20.658C68.1645 20.8503 68.5514 21.0041 68.8666 21.1276C69.3772 21.324 69.832 21.5042 70.2309 21.6641C70.6279 21.8261 70.965 22.0063 71.2343 22.2006C71.5056 22.399 71.707 22.6419 71.8427 22.9213C71.9783 23.2048 72.0441 23.559 72.0441 23.9862C72.0441 24.3061 71.9823 24.5956 71.8526 24.8547C71.727 25.1138 71.5574 25.3386 71.348 25.5289C71.1365 25.7212 70.8932 25.8649 70.6139 25.9641C70.3367 26.0613 70.0454 26.1099 69.7462 26.1099C69.5049 26.1099 69.2655 26.0734 69.0242 25.9965C68.7848 25.9216 68.5594 25.7941 68.348 25.62C68.1405 25.4458 67.963 25.213 67.8194 24.9215C67.6758 24.634 67.584 24.2737 67.5381 23.8465H64.2908H64.2888Z" fill="white"/>
</g>
<defs>
<clipPath id="clip0_28_94">
<rect width="205" height="66" fill="white"/>
</clipPath>
</defs>
</svg>
